<mxfile host="app.diagrams.net" agent="Mozilla/5.0 (Windows NT 10.0; Win64; x64) AppleWebKit/537.36 (KHTML, like Gecko) Chrome/134.0.0.0 Safari/537.36" version="26.1.1">
  <diagram name="Strona-1" id="fiZX_IeQ0ruc8s-oL568">
    <mxGraphModel dx="1235" dy="614" grid="1" gridSize="10" guides="1" tooltips="1" connect="1" arrows="1" fold="1" page="1" pageScale="1" pageWidth="1654" pageHeight="2336" math="0" shadow="0">
      <root>
        <mxCell id="0" />
        <mxCell id="1" parent="0" />
        <mxCell id="XoNWJ-6CHosFkSvrjF_y-1" value="&lt;font style=&quot;font-size: 20px;&quot;&gt;Q0&lt;/font&gt;" style="ellipse;whiteSpace=wrap;html=1;aspect=fixed;fillColor=none;" vertex="1" parent="1">
          <mxGeometry x="90" y="22" width="80" height="80" as="geometry" />
        </mxCell>
        <mxCell id="XoNWJ-6CHosFkSvrjF_y-2" value="" style="endArrow=classic;html=1;rounded=0;entryX=0;entryY=0.5;entryDx=0;entryDy=0;" edge="1" parent="1" target="XoNWJ-6CHosFkSvrjF_y-1">
          <mxGeometry width="50" height="50" relative="1" as="geometry">
            <mxPoint x="20" y="62" as="sourcePoint" />
            <mxPoint x="60" y="52" as="targetPoint" />
          </mxGeometry>
        </mxCell>
        <mxCell id="XoNWJ-6CHosFkSvrjF_y-3" value="" style="endArrow=classic;html=1;rounded=0;entryX=0;entryY=0.5;entryDx=0;entryDy=0;" edge="1" parent="1">
          <mxGeometry width="50" height="50" relative="1" as="geometry">
            <mxPoint x="180" y="42" as="sourcePoint" />
            <mxPoint x="250" y="42" as="targetPoint" />
          </mxGeometry>
        </mxCell>
        <mxCell id="XoNWJ-6CHosFkSvrjF_y-5" value="" style="ellipse;whiteSpace=wrap;html=1;aspect=fixed;fillColor=none;" vertex="1" parent="1">
          <mxGeometry x="95" y="27" width="70" height="70" as="geometry" />
        </mxCell>
        <mxCell id="XoNWJ-6CHosFkSvrjF_y-22" style="edgeStyle=orthogonalEdgeStyle;rounded=0;orthogonalLoop=1;jettySize=auto;html=1;exitX=1;exitY=0.5;exitDx=0;exitDy=0;" edge="1" parent="1" source="XoNWJ-6CHosFkSvrjF_y-6">
          <mxGeometry relative="1" as="geometry">
            <mxPoint x="310" y="112" as="targetPoint" />
          </mxGeometry>
        </mxCell>
        <mxCell id="XoNWJ-6CHosFkSvrjF_y-6" value="Q1" style="ellipse;whiteSpace=wrap;html=1;aspect=fixed;fillColor=none;fontSize=20;" vertex="1" parent="1">
          <mxGeometry x="260" y="22" width="80" height="80" as="geometry" />
        </mxCell>
        <mxCell id="XoNWJ-6CHosFkSvrjF_y-7" value="a" style="text;html=1;align=center;verticalAlign=middle;resizable=0;points=[];autosize=1;strokeColor=none;fillColor=none;" vertex="1" parent="1">
          <mxGeometry x="195" y="20" width="30" height="30" as="geometry" />
        </mxCell>
        <mxCell id="XoNWJ-6CHosFkSvrjF_y-8" value="" style="endArrow=classic;html=1;rounded=0;entryX=0;entryY=0.5;entryDx=0;entryDy=0;" edge="1" parent="1">
          <mxGeometry width="50" height="50" relative="1" as="geometry">
            <mxPoint x="250" y="72" as="sourcePoint" />
            <mxPoint x="180" y="72" as="targetPoint" />
          </mxGeometry>
        </mxCell>
        <mxCell id="XoNWJ-6CHosFkSvrjF_y-9" value="b" style="text;html=1;align=center;verticalAlign=middle;resizable=0;points=[];autosize=1;strokeColor=none;fillColor=none;flipH=1;" vertex="1" parent="1">
          <mxGeometry x="195" y="50" width="30" height="30" as="geometry" />
        </mxCell>
        <mxCell id="XoNWJ-6CHosFkSvrjF_y-13" value="a" style="text;html=1;align=center;verticalAlign=middle;resizable=0;points=[];autosize=1;strokeColor=none;fillColor=none;" vertex="1" parent="1">
          <mxGeometry x="360" y="80" width="30" height="30" as="geometry" />
        </mxCell>
        <mxCell id="XoNWJ-6CHosFkSvrjF_y-14" value="" style="endArrow=classic;html=1;rounded=0;exitX=0.5;exitY=1;exitDx=0;exitDy=0;entryX=0.5;entryY=0;entryDx=0;entryDy=0;" edge="1" parent="1" source="XoNWJ-6CHosFkSvrjF_y-1" target="XoNWJ-6CHosFkSvrjF_y-15">
          <mxGeometry width="50" height="50" relative="1" as="geometry">
            <mxPoint x="350" y="82" as="sourcePoint" />
            <mxPoint x="150" y="182" as="targetPoint" />
          </mxGeometry>
        </mxCell>
        <mxCell id="XoNWJ-6CHosFkSvrjF_y-23" style="edgeStyle=orthogonalEdgeStyle;rounded=0;orthogonalLoop=1;jettySize=auto;html=1;exitX=1;exitY=0.5;exitDx=0;exitDy=0;" edge="1" parent="1" source="XoNWJ-6CHosFkSvrjF_y-15">
          <mxGeometry relative="1" as="geometry">
            <mxPoint x="160" y="272" as="targetPoint" />
          </mxGeometry>
        </mxCell>
        <mxCell id="XoNWJ-6CHosFkSvrjF_y-15" value="&lt;font style=&quot;font-size: 20px;&quot;&gt;Q3&lt;/font&gt;" style="ellipse;whiteSpace=wrap;html=1;aspect=fixed;fillColor=none;" vertex="1" parent="1">
          <mxGeometry x="115" y="182" width="80" height="80" as="geometry" />
        </mxCell>
        <mxCell id="XoNWJ-6CHosFkSvrjF_y-24" value="a, b" style="text;html=1;align=center;verticalAlign=middle;resizable=0;points=[];autosize=1;strokeColor=none;fillColor=none;" vertex="1" parent="1">
          <mxGeometry x="210" y="240" width="40" height="30" as="geometry" />
        </mxCell>
        <mxCell id="XoNWJ-6CHosFkSvrjF_y-25" value="&lt;font style=&quot;font-size: 20px;&quot;&gt;Q0&lt;/font&gt;" style="ellipse;whiteSpace=wrap;html=1;aspect=fixed;fillColor=none;" vertex="1" parent="1">
          <mxGeometry x="400" y="362" width="80" height="80" as="geometry" />
        </mxCell>
        <mxCell id="XoNWJ-6CHosFkSvrjF_y-26" value="" style="endArrow=classic;html=1;rounded=0;entryX=0;entryY=0.5;entryDx=0;entryDy=0;" edge="1" parent="1" target="XoNWJ-6CHosFkSvrjF_y-25">
          <mxGeometry width="50" height="50" relative="1" as="geometry">
            <mxPoint x="330" y="402" as="sourcePoint" />
            <mxPoint x="370" y="392" as="targetPoint" />
          </mxGeometry>
        </mxCell>
        <mxCell id="XoNWJ-6CHosFkSvrjF_y-27" value="" style="endArrow=classic;html=1;rounded=0;entryX=0;entryY=0.5;entryDx=0;entryDy=0;" edge="1" parent="1">
          <mxGeometry width="50" height="50" relative="1" as="geometry">
            <mxPoint x="490" y="382" as="sourcePoint" />
            <mxPoint x="560" y="382" as="targetPoint" />
          </mxGeometry>
        </mxCell>
        <mxCell id="XoNWJ-6CHosFkSvrjF_y-29" style="edgeStyle=orthogonalEdgeStyle;rounded=0;orthogonalLoop=1;jettySize=auto;html=1;exitX=1;exitY=0.5;exitDx=0;exitDy=0;" edge="1" parent="1" source="XoNWJ-6CHosFkSvrjF_y-30">
          <mxGeometry relative="1" as="geometry">
            <mxPoint x="620" y="452" as="targetPoint" />
          </mxGeometry>
        </mxCell>
        <mxCell id="XoNWJ-6CHosFkSvrjF_y-30" value="Q1" style="ellipse;whiteSpace=wrap;html=1;aspect=fixed;fillColor=none;fontSize=20;" vertex="1" parent="1">
          <mxGeometry x="570" y="362" width="80" height="80" as="geometry" />
        </mxCell>
        <mxCell id="XoNWJ-6CHosFkSvrjF_y-31" value="a" style="text;html=1;align=center;verticalAlign=middle;resizable=0;points=[];autosize=1;strokeColor=none;fillColor=none;" vertex="1" parent="1">
          <mxGeometry x="505" y="360" width="30" height="30" as="geometry" />
        </mxCell>
        <mxCell id="XoNWJ-6CHosFkSvrjF_y-32" value="" style="endArrow=classic;html=1;rounded=0;entryX=0;entryY=0.5;entryDx=0;entryDy=0;" edge="1" parent="1">
          <mxGeometry width="50" height="50" relative="1" as="geometry">
            <mxPoint x="560" y="412" as="sourcePoint" />
            <mxPoint x="490" y="412" as="targetPoint" />
          </mxGeometry>
        </mxCell>
        <mxCell id="XoNWJ-6CHosFkSvrjF_y-33" value="b" style="text;html=1;align=center;verticalAlign=middle;resizable=0;points=[];autosize=1;strokeColor=none;fillColor=none;flipH=1;" vertex="1" parent="1">
          <mxGeometry x="505" y="390" width="30" height="30" as="geometry" />
        </mxCell>
        <mxCell id="XoNWJ-6CHosFkSvrjF_y-34" value="a" style="text;html=1;align=center;verticalAlign=middle;resizable=0;points=[];autosize=1;strokeColor=none;fillColor=none;" vertex="1" parent="1">
          <mxGeometry x="670" y="420" width="30" height="30" as="geometry" />
        </mxCell>
        <mxCell id="XoNWJ-6CHosFkSvrjF_y-35" value="" style="endArrow=classic;html=1;rounded=0;exitX=0.5;exitY=1;exitDx=0;exitDy=0;entryX=0.5;entryY=0;entryDx=0;entryDy=0;" edge="1" parent="1" source="XoNWJ-6CHosFkSvrjF_y-25" target="XoNWJ-6CHosFkSvrjF_y-37">
          <mxGeometry width="50" height="50" relative="1" as="geometry">
            <mxPoint x="660" y="422" as="sourcePoint" />
            <mxPoint x="460" y="522" as="targetPoint" />
          </mxGeometry>
        </mxCell>
        <mxCell id="XoNWJ-6CHosFkSvrjF_y-36" style="edgeStyle=orthogonalEdgeStyle;rounded=0;orthogonalLoop=1;jettySize=auto;html=1;exitX=1;exitY=0.5;exitDx=0;exitDy=0;" edge="1" parent="1" source="XoNWJ-6CHosFkSvrjF_y-37">
          <mxGeometry relative="1" as="geometry">
            <mxPoint x="470" y="612" as="targetPoint" />
          </mxGeometry>
        </mxCell>
        <mxCell id="XoNWJ-6CHosFkSvrjF_y-37" value="&lt;font style=&quot;font-size: 20px;&quot;&gt;Q3&lt;/font&gt;" style="ellipse;whiteSpace=wrap;html=1;aspect=fixed;fillColor=none;" vertex="1" parent="1">
          <mxGeometry x="425" y="522" width="80" height="80" as="geometry" />
        </mxCell>
        <mxCell id="XoNWJ-6CHosFkSvrjF_y-38" value="a, b" style="text;html=1;align=center;verticalAlign=middle;resizable=0;points=[];autosize=1;strokeColor=none;fillColor=none;" vertex="1" parent="1">
          <mxGeometry x="520" y="580" width="40" height="30" as="geometry" />
        </mxCell>
      </root>
    </mxGraphModel>
  </diagram>
</mxfile>
